<svg width="16" height="16" fill="none" xmlns="http://www.w3.org/2000/svg"><path d="M8.193 3.692c.721 0 1.625-.488 2.163-1.139.488-.59.843-1.414.843-2.238 0-.112-.01-.223-.03-.315-.803.03-1.767.54-2.346 1.22-.457.52-.874 1.333-.874 2.167 0 .122.02.244.03.285.051.01.133.02.214.02ZM5.653 16c.986 0 1.423-.661 2.652-.661 1.249 0 1.523.64 2.62.64 1.077 0 1.798-.996 2.478-1.973.762-1.119 1.077-2.217 1.097-2.268-.071-.02-2.133-.864-2.133-3.234 0-2.055 1.625-2.98 1.717-3.052-1.077-1.546-2.712-1.587-3.159-1.587-1.209 0-2.194.733-2.813.733-.67 0-1.554-.692-2.6-.692-1.99 0-4.012 1.648-4.012 4.76 0 1.933.752 3.977 1.676 5.3C3.968 15.085 4.659 16 5.654 16Z" fill="#fff"/></svg>